PathFileType	4	(X/Y/Z)	Walk1_0-155.trc
DataRate	CameraRate	NumFrames	NumMarkers	Units	OrigDataRate	OrigDataStartFrame	OrigNumFrames
30	30	7	22	m	30	77	155
Frame#	Time	Hip			RHip			RKnee			RAnkle			RBigToe			RSmallToe			RHeel			LHip			LKnee			LAnkle			LBigToe			LSmallToe			LHeel			Neck			Head			Nose			RShoulder			RElbow			RWrist			LShoulder			LElbow			LWrist		
		X1	Y1	Z1	X2	Y2	Z2	X3	Y3	Z3	X4	Y4	Z4	X5	Y5	Z5	X6	Y6	Z6	X7	Y7	Z7	X8	Y8	Z8	X9	Y9	Z9	X10	Y10	Z10	X11	Y11	Z11	X12	Y12	Z12	X13	Y13	Z13	X14	Y14	Z14	X15	Y15	Z15	X16	Y16	Z16	X17	Y17	Z17	X18	Y18	Z18	X19	Y19	Z19	X20	Y20	Z20	X21	Y21	Z21	X22	Y22	Z22
78	2.6	-0.6692913707181614	0.8881574081213136	0.36232160960445453	-0.660111961269324	0.8624002231511276	0.4682918897265702	-0.6185017025625256	0.49989946047294814	0.4198209558566984	-0.639353926647147	0.11475001832463132	0.3694726604820844	-0.4465078090420437	0.03577783255552109	0.38153865602452525	-0.4742368049946259	0.02125764616757306	0.42214226807577077	-0.6976507468707024	0.026928770439342956	0.36847835535002826	-0.6686458735266124	0.865240620647875	0.25454281650789284	-0.5707717125055559	0.5132275765119935	0.22534497509986107	-0.852086380414173	0.2398230592859037	0.2851515757084884	-0.8445864187323558	0.04970012977550103	0.23167345802801106	-0.8697577122576745	0.0866076612651885	0.1975928937232861	-0.9416899343820404	0.20974594626678833	0.29560980888841376	-0.7194681239803843	1.5759163969814975	0.3528591263195953	-0.6823293804413849	1.8270210971295453	0.3712166912412448	-0.5228339648618117	1.670139803341408	0.34014822148436025	-0.7534075853309592	1.4532495052759415	0.5318658256511182	-0.6498839033432932	1.127692060549364	0.6168450481218591	-0.5696737249605328	0.8930734048552029	0.6345341300682672	-0.734306258162772	1.4498255291271833	0.15979941467746261	-0.7411585910106325	1.1431338143722936	0.13064023281258555	-0.6920158715754298	0.8908593042875033	0.09995755085841158
79	2.6333333333333333	-0.633398843810594	0.8978469365180322	0.3640348961096164	-0.6289617342621086	0.8772294295003955	0.4687865045509407	-0.6089106250154841	0.5036158521555278	0.4222600510578022	-0.6291127136641163	0.12153192384501459	0.3696227525510133	-0.4457686550761386	0.029684817430551978	0.3785316053769454	-0.4758806701763594	0.009811427461829078	0.41201435829291594	-0.6899217092601739	0.025810698024357814	0.36855454520826875	-0.6368813636434237	0.8813119390597403	0.25328923891311594	-0.4966547422325231	0.5395144068023512	0.22745594067930544	-0.7540326232504652	0.2257956788481193	0.2903221700062199	-0.6454849638665363	0.03230101770681019	0.29779182335721893	-0.6894908724396919	0.05995606283388229	0.25220003261316565	-0.8401381271457652	0.18540492037321485	0.2943403576384306	-0.677575923079335	1.5832226665905378	0.35257007889345277	-0.6419506131792592	1.8339873421645536	0.37546662284693144	-0.48550122227560366	1.6768019545011779	0.34272062023554	-0.7117288516521522	1.4637948490761834	0.5286479159943204	-0.5930232841812422	1.1523990328618092	0.6015029628741562	-0.49332605925527273	0.9101877447412671	0.6381324716105229	-0.6954629049966208	1.4576466705066415	0.15624428980684454	-0.709695415240714	1.1508788626881032	0.12601879669881713	-0.6700706893389832	0.9012201277611044	0.09762916895587223
80	2.6666666666666665	-0.6021521456530095	0.9063129717026636	0.3669343563570986	-0.6037874579479378	0.8857090417976636	0.4706119882239894	-0.5983012722394943	0.5082842411895666	0.42684116695612484	-0.6383707635021614	0.12206641417441763	0.37959921129194046	-0.43471400377362235	0.033172625417170906	0.3769053419684648	-0.48441072708244665	0.022720503061079287	0.4295536149719639	-0.6760798602767085	0.04734601679840476	0.3912687999649563	-0.5976966429447079	0.8929473350379751	0.25256721448187713	-0.3906461338727505	0.5659834917528285	0.2712054265747075	-0.665895523823586	0.262203890622718	0.2683138545888654	-0.5053960323551548	0.02304882171732942	0.30564990077227683	-0.5478023308161357	0.04621012719598602	0.25087656663440255	-0.7304691691220417	0.21656890799759346	0.27798530415792017	-0.6363929916675557	1.5919270239156333	0.3532393409723348	-0.587744139472402	1.8343382226002736	0.36765980718483077	-0.47414909295512025	1.7016121461608582	0.36970122590778226	-0.6736158453094346	1.4700013795561535	0.5294893825214693	-0.5432715519497201	1.1621506868684486	0.6017657641933734	-0.4187729380072261	0.9260693141586909	0.6325946550716876	-0.6384700093171896	1.4710373694961965	0.18083601679662048	-0.6698253974237323	1.1511562622856732	0.10689622049353319	-0.6483770386030442	0.9012260412632714	0.10061227258823931
81	2.7	-0.5625323322876804	0.9102948616395112	0.36630019137902753	-0.568004699508993	0.8856531508881301	0.471092772194609	-0.5800715676453486	0.5133403661474167	0.4242771141489086	-0.6289083088867247	0.11546172086993729	0.3722686492854533	-0.4200491480220654	0.0021808075520354624	0.3792001392365644	-0.4718892359296307	0.01055319439653582	0.42879994331722077	-0.6973370143239792	0.04412021560147876	0.36309620948321714	-0.5525499409835436	0.8985829675657945	0.24592851847390673	-0.32988574627341183	0.5800659742602597	0.27087589020177144	-0.5658551461671103	0.22113286617879463	0.26649933923559477	-0.36157287404567007	0.01890361452048266	0.2984118522525839	-0.46536014678634896	0.08058168074529619	0.18552074251140221	-0.6232891782771217	0.16789280475622556	0.27475385703879956	-0.5954314592481253	1.5956104024945454	0.35380321451660873	-0.5385305071804185	1.8398768753021661	0.3641352579462594	-0.38302310324770167	1.6783586986744028	0.32749927301323356	-0.632310232410985	1.4735451043802656	0.5321630195936532	-0.4918608541510352	1.1703873054569929	0.6069482248201709	-0.35027423620564097	0.9426743257286286	0.6296785525734457	-0.6378059165348506	1.4814928155717368	0.15418281308767182	-0.6575183991190042	1.1560509206622351	0.12626213342923212	-0.6361550703029552	0.9056801114993966	0.10481402053744841
82	2.7333333333333334	-0.5254249854151911	0.9090290847998312	0.3681146741295525	-0.5396572605061647	0.8820174656542232	0.4710307606486621	-0.5710010919762885	0.5104734196590796	0.42360416455242417	-0.6364471452355502	0.10475093090553286	0.3624792881965609	-0.451260619196116	0.033854464339403256	0.38818764475909506	-0.4998701661465722	0.023897593619026623	0.425777393018718	-0.687840351867276	0.025946185000096024	0.3502129051991161	-0.5108725495144188	0.8965688294544547	0.24507703795714578	-0.28838493285275807	0.580018024938322	0.26535054862505286	-0.4483419591729095	0.18102165041014678	0.26929376318742476	-0.23646578964098453	0.06563224831587607	0.27431972426293677	-0.28187394820873163	0.07128652440893554	0.22660304976804235	-0.5010638741890242	0.11278889886548715	0.28390763690310256	-0.55381623176752	1.5947305819805937	0.3546410710472261	-0.492839153905413	1.8417529173719198	0.3604456990392196	-0.34465044696807307	1.6771529586499883	0.3307082091273418	-0.590757713626826	1.4752500004395364	0.5335859196407576	-0.4457980407395162	1.1718788371497444	0.6066573430301055	-0.28467937540865484	0.9552742078702885	0.6238461360795973	-0.6025554560412476	1.482064545587756	0.1550672216840655	-0.6326009280397172	1.1517530132974658	0.12468155272937645	-0.607006673675603	0.900033818679257	0.10250986841472386
83	2.7666666666666666	-0.4902167505306102	0.9056148094073213	0.369487091461556	-0.5081344325322842	0.8839561629604339	0.4757029507729214	-0.5518272840335374	0.5099712492333736	0.42715867607683405	-0.6258793149647103	0.1061922389788031	0.37244904804919804	-0.43714858087144626	0.024027724785237008	0.3922023494622892	-0.4941704449934122	0.023219378857889904	0.44101220219285725	-0.6940118686133314	0.027429851076903943	0.34764530088437784	-0.4677015272781424	0.8951517253926755	0.24820886765993877	-0.25169093822771316	0.5708259213396298	0.26292451469425016	-0.33620367535907986	0.16233736821798814	0.25069067385669724	-0.11481658875521841	0.08018162774829383	0.25770737982985964	-0.15300247052372606	0.07746658351743942	0.21361821745352735	-0.3853960711239439	0.09929161721677393	0.26304334180743316	-0.5150267712053656	1.5930127127064588	0.3555029305202528	-0.45396668342707236	1.8392100241441183	0.36153533286320616	-0.29443092622053524	1.673443057217407	0.319468804974799	-0.5487620362580541	1.4753189424832265	0.5301939322218419	-0.4029416135938709	1.1745075361781248	0.6090408024876466	-0.216705170566	0.9670316364130059	0.6216650177272952	-0.5606370045270909	1.479291571612386	0.15860011108638417	-0.5963819057413065	1.1485100352532984	0.12311193425234533	-0.5832168555015348	0.9066962212329573	0.10063546512818425
84	2.8	-0.4535646140646015	0.9038854110006652	0.3656980611000853	-0.4743711371873506	0.8838288760216992	0.47478500282181574	-0.5346953855622161	0.4996768013749552	0.4260596013345504	-0.6247539757670545	0.11109582653102666	0.3668656880600462	-0.46564008220884096	0.020501572696662924	0.42117045549783755	-0.4881412492338673	0.020682237587066225	0.4319732007609049	-0.6994820956854487	0.03001625207958169	0.3475427581389761	-0.4295124644871859	0.895230723379136	0.2482449156988217	-0.21813538522687723	0.5566296858341494	0.25690302714432817	-0.1942101133811813	0.13858662008620212	0.25933372556543643	0.037430144267957044	0.10010545871691964	0.26044452752009956	-0.005587969054539208	0.09151682300165762	0.215769664855914	-0.22887391518225844	0.06612729626381092	0.2635612942562741	-0.46876381562069397	1.588387428502512	0.3568747909232825	-0.41280360359554924	1.8351373206845358	0.3554683643456032	-0.2630863965688168	1.6663065142128262	0.33277517771062315	-0.5014967217010257	1.4707637237294238	0.5298552245363395	-0.35523396246300964	1.1719609026963251	0.6064201264863077	-0.15174732001554633	0.9767128793197664	0.6120229786571423	-0.5188898985813064	1.4741715458897489	0.1576168985699688	-0.5638095463729388	1.1631643756116186	0.12164631967580623	-0.5462550211507397	0.8931348003615398	0.09689553995479602
